<svg width="21" height="21" viewBox="0 0 21 21" fill="none" xmlns="http://www.w3.org/2000/svg">
<path d="M19.8438 18.3203C20.0391 18.5156 20.0391 18.8281 19.8438 18.9844L18.9453 19.8828C18.7891 20.0781 18.4766 20.0781 18.2812 19.8828L13.5547 15.1562C13.4766 15.0391 13.4375 14.9219 13.4375 14.8047V14.2969C11.9922 15.5078 10.1562 16.25 8.125 16.25C3.63281 16.25 0 12.6172 0 8.125C0 3.67188 3.63281 0 8.125 0C12.5781 0 16.25 3.67188 16.25 8.125C16.25 10.1562 15.4688 12.0312 14.2578 13.4375H14.7656C14.8828 13.4375 15 13.5156 15.1172 13.5938L19.8438 18.3203ZM8.125 14.375C11.5625 14.375 14.375 11.6016 14.375 8.125C14.375 4.6875 11.5625 1.875 8.125 1.875C4.64844 1.875 1.875 4.6875 1.875 8.125C1.875 11.6016 4.64844 14.375 8.125 14.375Z" fill="#d4d4d9"/>
</svg>
